<svg width="430" height="484" viewBox="0 0 430 484" fill="none" xmlns="http://www.w3.org/2000/svg">
<path d="M213.896 192.543C209.505 220.486 202.671 243.826 190.319 267.445L428.879 286.52L429.269 251.908L213.896 192.543Z" fill="#985D0B"/>
<path d="M185.334 279.575C168.124 308.145 151.492 327.991 125.112 345.692L428.133 321.96L428.645 288.253L185.334 279.575Z" fill="#985D0B"/>
<path d="M211.052 89.6008C214.237 105.906 217.093 134.034 217.093 151.41C217.093 161.134 216.542 170.683 215.521 180.097L429.165 250.572L430 211.746L211.052 89.6008Z" fill="#985D0B"/>
<path fill-rule="evenodd" clip-rule="evenodd" d="M173.528 280.467L0.228027 290.493L0.581721 326.353L112.949 346.976C138.163 328.234 157.679 309.937 173.528 280.467Z" fill="#FF6600"/>
<path fill-rule="evenodd" clip-rule="evenodd" d="M204.882 194.273L0.856689 250.879L1.06619 287.674L181.403 267.889C192.6 245.441 200.652 220.642 204.882 194.273H204.882Z" fill="#FF6600"/>
<path fill-rule="evenodd" clip-rule="evenodd" d="M204.305 88.7344L0.922119 212.765L1.30226 247.111L206.375 181.152C207.266 171.006 208.288 151.916 208.288 141.454C208.288 123.4 206.905 105.778 204.305 88.7344Z" fill="#FF6600"/>
<path fill-rule="evenodd" clip-rule="evenodd" d="M164.003 5.51782L1.03762 167.54L1.01343 209.731L198.513 74.4889C190.941 49.5346 177.392 25.9023 164.003 5.51782H164.003Z" fill="#FF6600"/>
<path d="M92.5251 483.632L92.8159 419.723L428.376 357.785L428.946 387.047L92.5251 483.632Z" fill="#985D0B"/>
<path d="M0.135742 399.96L84.8085 483.723L85.2453 419.053L0.22455 365.492L0.135742 399.96Z" fill="#FF6600"/>
<path d="M92.25 413.078L92.486 354.538L427.943 324.838L427.883 356.536L92.25 413.078Z" fill="#985D0B"/>
<path d="M0.301639 364.048L85.5493 411.206L85.8458 354.488L0 329.408L0.301614 364.048H0.301639Z" fill="#FF6600"/>
<path d="M172.602 0C181.234 14.2332 189.636 27.4565 195.083 43.5896C198.173 52.7399 203.847 63.8087 205.161 73.2233L429.165 210.323L429.088 167.114L172.602 0Z" fill="#985D0B"/>
</svg>
