<svg width="1999" height="453" viewBox="0 0 1999 453" fill="none" xmlns="http://www.w3.org/2000/svg">
<path d="M195.072 180.065C191.067 206.198 184.834 228.025 173.569 250.113L391.134 267.952L391.49 235.583L195.072 180.065Z" fill="#985D0B"/>
<path d="M169.023 261.458C153.328 288.177 138.159 306.736 114.101 323.29L390.454 301.096L390.921 269.574L169.023 261.458Z" fill="#985D0B"/>
<path d="M192.477 83.7944C195.383 99.0428 197.987 125.348 197.987 141.598C197.987 150.691 197.484 159.622 196.553 168.426L391.395 234.334L392.156 198.023L192.477 83.7944Z" fill="#985D0B"/>
<path fill-rule="evenodd" clip-rule="evenodd" d="M158.256 262.291L0.20813 271.668L0.530696 305.203L103.009 324.49C126.004 306.962 143.802 289.851 158.256 262.291Z" fill="#FF6600"/>
<path fill-rule="evenodd" clip-rule="evenodd" d="M186.851 181.683L0.78154 234.621L0.972602 269.031L165.438 250.528C175.65 229.535 182.993 206.343 186.851 181.683H186.851Z" fill="#FF6600"/>
<path fill-rule="evenodd" clip-rule="evenodd" d="M186.325 82.9849L0.841019 198.978L1.18771 231.098L188.213 169.413C189.025 159.925 189.957 142.072 189.957 132.288C189.957 115.404 188.696 98.9243 186.325 82.9849Z" fill="#FF6600"/>
<path fill-rule="evenodd" clip-rule="evenodd" d="M149.57 5.16077L0.946641 156.683L0.924576 196.14L181.043 69.6622C174.137 46.325 161.781 24.2242 149.57 5.16077H149.57Z" fill="#FF6600"/>
<path d="M84.3821 452.29L84.6473 392.522L390.675 334.599L391.195 361.964L84.3821 452.29Z" fill="#985D0B"/>
<path d="M0.123428 374.04L77.3443 452.375L77.7427 391.896L0.20442 341.806L0.123428 374.04Z" fill="#FF6600"/>
<path d="M84.1312 386.309L84.3464 331.562L390.28 303.787L390.225 333.431L84.1312 386.309Z" fill="#985D0B"/>
<path d="M0.275093 340.456L78.0202 384.558L78.2907 331.515L0 308.06L0.275069 340.456H0.275093Z" fill="#FF6600"/>
<path d="M157.411 0C165.284 13.3108 172.947 25.6771 177.914 40.7648C180.732 49.3221 185.907 59.6735 187.105 68.478L391.395 196.693L391.324 156.284L157.411 0Z" fill="#985D0B"/>
<path d="M456.037 360.985V156.973H570.887C576.932 156.973 582.473 158.568 587.511 161.759C592.716 164.781 596.83 168.811 599.852 173.848C602.874 178.886 604.386 184.511 604.386 190.723V269.305C604.386 275.518 602.874 281.143 599.852 286.18C596.83 291.218 592.716 295.332 587.511 298.522C582.473 301.544 576.932 303.055 570.887 303.055H486.009V360.985H456.037ZM490.794 273.083H569.88C571.055 273.083 572.063 272.664 572.902 271.824C573.91 270.817 574.414 269.641 574.414 268.298V191.731C574.414 190.387 573.91 189.296 572.902 188.456C572.063 187.449 571.055 186.945 569.88 186.945H490.794C489.619 186.945 488.527 187.449 487.52 188.456C486.512 189.296 486.009 190.387 486.009 191.731V268.298C486.009 269.641 486.512 270.817 487.52 271.824C488.527 272.664 489.619 273.083 490.794 273.083ZM656.286 303.055C650.073 303.055 644.448 301.544 639.411 298.522C634.373 295.332 630.26 291.218 627.069 286.18C624.047 281.143 622.536 275.518 622.536 269.305V190.723C622.536 184.511 624.047 178.886 627.069 173.848C630.26 168.811 634.373 164.781 639.411 161.759C644.448 158.568 650.073 156.973 656.286 156.973H737.135C743.515 156.973 749.224 158.568 754.262 161.759C759.299 164.781 763.329 168.811 766.351 173.848C769.374 178.886 770.885 184.511 770.885 190.723V245.126H652.508V268.298C652.508 269.641 652.927 270.817 653.767 271.824C654.774 272.664 655.95 273.083 657.293 273.083H770.885V303.055H656.286ZM652.508 217.673H740.913V191.731C740.913 190.387 740.409 189.296 739.401 188.456C738.562 187.449 737.47 186.945 736.127 186.945H657.293C655.95 186.945 654.774 187.449 653.767 188.456C652.927 189.296 652.508 190.387 652.508 191.731V217.673ZM795.699 303.055V190.723C795.699 184.511 797.211 178.886 800.233 173.848C803.423 168.811 807.537 164.781 812.574 161.759C817.78 158.568 823.405 156.973 829.449 156.973H910.802V186.945H830.457C829.114 186.945 827.938 187.449 826.931 188.456C826.091 189.296 825.671 190.387 825.671 191.731V303.055H795.699ZM961.754 303.055C955.541 303.055 949.916 301.544 944.879 298.522C939.841 295.332 935.728 291.218 932.537 286.18C929.515 281.143 928.004 275.518 928.004 269.305V264.52H957.976V268.298C957.976 269.641 958.396 270.817 959.235 271.824C960.243 272.664 961.418 273.083 962.761 273.083H1041.6C1042.94 273.083 1044.03 272.664 1044.87 271.824C1045.88 270.817 1046.38 269.641 1046.38 268.298V249.66C1046.38 248.484 1045.88 247.477 1044.87 246.637C1044.03 245.63 1042.94 245.126 1041.6 245.126H961.754C955.541 245.126 949.916 243.615 944.879 240.593C939.841 237.402 935.728 233.289 932.537 228.251C929.515 223.214 928.004 217.589 928.004 211.376V190.723C928.004 184.511 929.515 178.886 932.537 173.848C935.728 168.811 939.841 164.781 944.879 161.759C949.916 158.568 955.541 156.973 961.754 156.973H1042.6C1048.98 156.973 1054.69 158.568 1059.73 161.759C1064.77 164.781 1068.8 168.811 1071.82 173.848C1075.01 178.886 1076.6 184.511 1076.6 190.723V195.509H1046.38V191.731C1046.38 190.387 1045.88 189.296 1044.87 188.456C1044.03 187.449 1042.94 186.945 1041.6 186.945H962.761C961.418 186.945 960.243 187.449 959.235 188.456C958.396 189.296 957.976 190.387 957.976 191.731V210.369C957.976 211.544 958.396 212.636 959.235 213.643C960.243 214.483 961.418 214.902 962.761 214.902H1042.6C1048.98 214.902 1054.69 216.497 1059.73 219.688C1064.77 222.71 1068.8 226.74 1071.82 231.777C1075.01 236.815 1076.6 242.44 1076.6 248.652V269.305C1076.6 275.518 1075.01 281.143 1071.82 286.18C1068.8 291.218 1064.77 295.332 1059.73 298.522C1054.69 301.544 1048.98 303.055 1042.6 303.055H961.754ZM1102.18 360.985V156.973H1217.03C1223.08 156.973 1228.62 158.568 1233.65 161.759C1238.86 164.781 1242.97 168.811 1246 173.848C1249.02 178.886 1250.53 184.511 1250.53 190.723V269.305C1250.53 275.518 1249.02 281.143 1246 286.18C1242.97 291.218 1238.86 295.332 1233.65 298.522C1228.62 301.544 1223.08 303.055 1217.03 303.055H1132.15V360.985H1102.18ZM1136.94 273.083H1216.02C1217.2 273.083 1218.21 272.664 1219.05 271.824C1220.05 270.817 1220.56 269.641 1220.56 268.298V191.731C1220.56 190.387 1220.05 189.296 1219.05 188.456C1218.21 187.449 1217.2 186.945 1216.02 186.945H1136.94C1135.76 186.945 1134.67 187.449 1133.66 188.456C1132.66 189.296 1132.15 190.387 1132.15 191.731V268.298C1132.15 269.641 1132.66 270.817 1133.66 271.824C1134.67 272.664 1135.76 273.083 1136.94 273.083ZM1302.43 303.055C1296.22 303.055 1290.59 301.544 1285.56 298.522C1280.52 295.332 1276.4 291.218 1273.21 286.18C1270.19 281.143 1268.68 275.518 1268.68 269.305V190.723C1268.68 184.511 1270.19 178.886 1273.21 173.848C1276.4 168.811 1280.52 164.781 1285.56 161.759C1290.59 158.568 1296.22 156.973 1302.43 156.973H1383.28C1389.66 156.973 1395.37 158.568 1400.41 161.759C1405.44 164.781 1409.47 168.811 1412.5 173.848C1415.52 178.886 1417.03 184.511 1417.03 190.723V245.126H1298.65V268.298C1298.65 269.641 1299.07 270.817 1299.91 271.824C1300.92 272.664 1302.09 273.083 1303.44 273.083H1417.03V303.055H1302.43ZM1298.65 217.673H1387.06V191.731C1387.06 190.387 1386.55 189.296 1385.55 188.456C1384.71 187.449 1383.61 186.945 1382.27 186.945H1303.44C1302.09 186.945 1300.92 187.449 1299.91 188.456C1299.07 189.296 1298.65 190.387 1298.65 191.731V217.673ZM1471.16 303.055C1464.95 303.055 1459.32 301.544 1454.29 298.522C1449.25 295.332 1445.13 291.218 1441.94 286.18C1438.92 281.143 1437.41 275.518 1437.41 269.305V190.723C1437.41 184.511 1438.92 178.886 1441.94 173.848C1445.13 168.811 1449.25 164.781 1454.29 161.759C1459.32 158.568 1464.95 156.973 1471.16 156.973H1585.51V186.945H1472.17C1470.82 186.945 1469.65 187.449 1468.64 188.456C1467.8 189.296 1467.38 190.387 1467.38 191.731V268.298C1467.38 269.641 1467.8 270.817 1468.64 271.824C1469.65 272.664 1470.82 273.083 1472.17 273.083H1585.76V303.055H1471.16ZM1640.15 303.055C1633.94 303.055 1628.23 301.544 1623.02 298.522C1617.98 295.332 1613.95 291.218 1610.93 286.18C1607.91 281.143 1606.4 275.518 1606.4 269.305V111.385H1636.37V156.973H1694.8V186.945H1636.37V268.298C1636.37 269.641 1636.79 270.817 1637.63 271.824C1638.64 272.664 1639.81 273.083 1641.16 273.083H1694.8V303.055H1640.15ZM1715.35 303.055V156.973H1745.33V303.055H1715.35ZM1715.35 139.343V109.119H1745.33V139.343H1715.35ZM1843.73 303.055L1763.38 156.973H1798.14L1858.33 267.542L1918.53 156.973H1953.29L1872.44 303.055H1843.73Z" fill="#FF6600"/>
<path d="M1957.75 150.052C1976.95 150.052 1992.52 134.488 1992.52 115.289C1992.52 96.0895 1976.95 80.5254 1957.75 80.5254C1938.55 80.5254 1922.99 96.0895 1922.99 115.289C1922.99 134.488 1938.55 150.052 1957.75 150.052Z" stroke="#FF6600" stroke-width="7.85615"/>
<path d="M1955.63 112.146C1957.79 112.146 1959.36 111.714 1960.31 110.889C1961.25 110.104 1961.76 108.768 1961.76 106.883C1961.76 105.037 1961.25 103.74 1960.31 102.915C1959.36 102.13 1957.79 101.737 1955.63 101.737H1951.23V112.146H1955.63ZM1951.23 119.335V134.654H1940.78V94.1559H1956.73C1962.07 94.1559 1965.96 95.0593 1968.44 96.8663C1970.95 98.6339 1972.17 101.462 1972.17 105.351C1972.17 108.022 1971.54 110.222 1970.25 111.95C1968.95 113.639 1967.02 114.935 1964.39 115.721C1965.85 116.075 1967.1 116.821 1968.24 117.96C1969.38 119.099 1970.52 120.828 1971.66 123.184L1977.35 134.654H1966.24L1961.29 124.598C1960.31 122.595 1959.29 121.181 1958.26 120.474C1957.24 119.728 1955.87 119.335 1954.18 119.335H1951.23Z" fill="#FF6600"/>
</svg>
